<?xml version="1.0" encoding="UTF-8"?>
<!DOCTYPE svg PUBLIC "-//W3C//DTD SVG 1.1//EN" "http://www.w3.org/Graphics/SVG/1.1/DTD/svg11.dtd">
<!-- Creator: CorelDRAW X6 -->
<svg xmlns="http://www.w3.org/2000/svg" xml:space="preserve" width="0.987366in" height="0.461394in" version="1.1" style="shape-rendering:geometricPrecision; text-rendering:geometricPrecision; image-rendering:optimizeQuality; fill-rule:evenodd; clip-rule:evenodd"
viewBox="0 0 1853 866"
 xmlns:xlink="http://www.w3.org/1999/xlink">
 <defs>
  <style type="text/css">
   <![CDATA[
    .fil0 {fill:#ffffff;fill-rule:nonzero}
   ]]>
  </style>
 </defs>
 <g id="Layer_x0020_1">
  <metadata id="CorelCorpID_0Corel-Layer"/>
  <path class="fil0" d="M1812 194c-77,262 -134,454 -181,616l-11 38 -6 19 -20 0 -41 0 -1250 0 -41 0 -20 0 -6 -19 -11 -38c-34,-115 -111,-375 -182,-614l0 0 -44 -149 443 290 135 -237 38 -66 19 -33 25 29 51 58 218 250 218 -250 51 -58 25 -29 19 33 38 66 134 237 441 -299 -41 156 0 1zm-320 516l91 -310 -142 117 -50 42 -25 21 -16 -28 -32 -56 -126 -221 -203 234 -41 47 -21 24 -21 -24 -41 -47 -203 -234 -126 221 -32 56 -16 28 -25 -21 -50 -41 -141 -116 91 309 1128 0z"/>
 </g>
</svg>
